<?xml version="1.0" encoding="UTF-8"?>
<svg xmlns="http://www.w3.org/2000/svg" width="1200" height="700" viewBox="0 0 1200 700" role="img" aria-label="Conditional assembly robustness"><rect width="1200" height="700" fill="#FFFFFF" /><text x="600.000" y="36.000" font-family="Arial, sans-serif" font-size="24" text-anchor="middle" fill="#17212B" font-weight="600" letter-spacing="0">Conditional assembly robustness</text><text x="635.000" y="670.000" font-family="Arial, sans-serif" font-size="18" text-anchor="middle" fill="#263746" font-weight="400" letter-spacing="0">Transverse backlash allowance (mm)</text><text x="28.000" y="330.000" font-family="Arial, sans-serif" font-size="18" text-anchor="middle" fill="#263746" font-weight="400" letter-spacing="0" transform="rotate(-90 28 330)">Modeled valid probability</text><line x1="135.000" y1="580.000" x2="1140.000" y2="580.000" stroke="#D9DEE3" stroke-width="1.000" /><text x="121.000" y="586.000" font-family="Arial, sans-serif" font-size="14" text-anchor="end" fill="#425466" font-weight="400" letter-spacing="0">0.000</text><line x1="135.000" y1="507.857" x2="1140.000" y2="507.857" stroke="#D9DEE3" stroke-width="1.000" /><text x="121.000" y="513.857" font-family="Arial, sans-serif" font-size="14" text-anchor="end" fill="#425466" font-weight="400" letter-spacing="0">0.005</text><line x1="135.000" y1="435.714" x2="1140.000" y2="435.714" stroke="#D9DEE3" stroke-width="1.000" /><text x="121.000" y="441.714" font-family="Arial, sans-serif" font-size="14" text-anchor="end" fill="#425466" font-weight="400" letter-spacing="0">0.010</text><line x1="135.000" y1="363.571" x2="1140.000" y2="363.571" stroke="#D9DEE3" stroke-width="1.000" /><text x="121.000" y="369.571" font-family="Arial, sans-serif" font-size="14" text-anchor="end" fill="#425466" font-weight="400" letter-spacing="0">0.015</text><line x1="135.000" y1="291.429" x2="1140.000" y2="291.429" stroke="#D9DEE3" stroke-width="1.000" /><text x="121.000" y="297.429" font-family="Arial, sans-serif" font-size="14" text-anchor="end" fill="#425466" font-weight="400" letter-spacing="0">0.020</text><line x1="135.000" y1="219.286" x2="1140.000" y2="219.286" stroke="#D9DEE3" stroke-width="1.000" /><text x="121.000" y="225.286" font-family="Arial, sans-serif" font-size="14" text-anchor="end" fill="#425466" font-weight="400" letter-spacing="0">0.025</text><line x1="135.000" y1="147.143" x2="1140.000" y2="147.143" stroke="#D9DEE3" stroke-width="1.000" /><text x="121.000" y="153.143" font-family="Arial, sans-serif" font-size="14" text-anchor="end" fill="#425466" font-weight="400" letter-spacing="0">0.030</text><line x1="135.000" y1="75.000" x2="1140.000" y2="75.000" stroke="#D9DEE3" stroke-width="1.000" /><text x="121.000" y="81.000" font-family="Arial, sans-serif" font-size="14" text-anchor="end" fill="#425466" font-weight="400" letter-spacing="0">0.035</text><line x1="135.000" y1="75.000" x2="135.000" y2="580.000" stroke="#334E5C" stroke-width="2.000" /><line x1="135.000" y1="580.000" x2="1140.000" y2="580.000" stroke="#334E5C" stroke-width="2.000" /><circle cx="135.000" cy="580.000" r="8.000" fill="#2374AB" stroke="#FFFFFF" stroke-width="3" /><circle cx="302.500" cy="536.085" r="8.000" fill="#2374AB" stroke="#FFFFFF" stroke-width="3" /><circle cx="470.000" cy="536.085" r="8.000" fill="#2374AB" stroke="#FFFFFF" stroke-width="3" /><circle cx="637.500" cy="118.774" r="8.000" fill="#2374AB" stroke="#FFFFFF" stroke-width="3" /><circle cx="805.000" cy="118.774" r="8.000" fill="#2374AB" stroke="#FFFFFF" stroke-width="3" /><circle cx="972.500" cy="118.774" r="8.000" fill="#2374AB" stroke="#FFFFFF" stroke-width="3" /><circle cx="1140.000" cy="118.774" r="8.000" fill="#2374AB" stroke="#FFFFFF" stroke-width="3" /><polyline points="135.000,580.000 302.500,536.085 470.000,536.085 637.500,118.774 805.000,118.774 972.500,118.774 1140.000,118.774" fill="none" stroke="#2374AB" stroke-width="4.000" stroke-linejoin="round" /><line x1="860.000" y1="92.000" x2="900.000" y2="92.000" stroke="#2374AB" stroke-width="4.000" /><text x="912.000" y="97.000" font-family="Arial, sans-serif" font-size="14" text-anchor="start" fill="#263746" font-weight="600" letter-spacing="0">shaft +/-0.0025 mm</text><circle cx="135.000" cy="580.000" r="8.000" fill="#F18F01" stroke="#FFFFFF" stroke-width="3" /><circle cx="302.500" cy="577.299" r="8.000" fill="#F18F01" stroke="#FFFFFF" stroke-width="3" /><circle cx="470.000" cy="577.299" r="8.000" fill="#F18F01" stroke="#FFFFFF" stroke-width="3" /><circle cx="637.500" cy="497.336" r="8.000" fill="#F18F01" stroke="#FFFFFF" stroke-width="3" /><circle cx="805.000" cy="119.479" r="8.000" fill="#F18F01" stroke="#FFFFFF" stroke-width="3" /><circle cx="972.500" cy="119.479" r="8.000" fill="#F18F01" stroke="#FFFFFF" stroke-width="3" /><circle cx="1140.000" cy="119.479" r="8.000" fill="#F18F01" stroke="#FFFFFF" stroke-width="3" /><polyline points="135.000,580.000 302.500,577.299 470.000,577.299 637.500,497.336 805.000,119.479 972.500,119.479 1140.000,119.479" fill="none" stroke="#F18F01" stroke-width="4.000" stroke-linejoin="round" /><line x1="860.000" y1="120.000" x2="900.000" y2="120.000" stroke="#F18F01" stroke-width="4.000" /><text x="912.000" y="125.000" font-family="Arial, sans-serif" font-size="14" text-anchor="start" fill="#263746" font-weight="600" letter-spacing="0">shaft +/-0.005 mm</text><circle cx="135.000" cy="580.000" r="8.000" fill="#2A9D55" stroke="#FFFFFF" stroke-width="3" /><circle cx="302.500" cy="579.883" r="8.000" fill="#2A9D55" stroke="#FFFFFF" stroke-width="3" /><circle cx="470.000" cy="579.883" r="8.000" fill="#2A9D55" stroke="#FFFFFF" stroke-width="3" /><circle cx="637.500" cy="574.834" r="8.000" fill="#2A9D55" stroke="#FFFFFF" stroke-width="3" /><circle cx="805.000" cy="402.931" r="8.000" fill="#2A9D55" stroke="#FFFFFF" stroke-width="3" /><circle cx="972.500" cy="119.479" r="8.000" fill="#2A9D55" stroke="#FFFFFF" stroke-width="3" /><circle cx="1140.000" cy="119.479" r="8.000" fill="#2A9D55" stroke="#FFFFFF" stroke-width="3" /><polyline points="135.000,580.000 302.500,579.883 470.000,579.883 637.500,574.834 805.000,402.931 972.500,119.479 1140.000,119.479" fill="none" stroke="#2A9D55" stroke-width="4.000" stroke-linejoin="round" /><line x1="860.000" y1="148.000" x2="900.000" y2="148.000" stroke="#2A9D55" stroke-width="4.000" /><text x="912.000" y="153.000" font-family="Arial, sans-serif" font-size="14" text-anchor="start" fill="#263746" font-weight="600" letter-spacing="0">shaft +/-0.01 mm</text><circle cx="135.000" cy="580.000" r="8.000" fill="#C44536" stroke="#FFFFFF" stroke-width="3" /><text x="135.000" y="608.000" font-family="Arial, sans-serif" font-size="13" text-anchor="middle" fill="#425466" font-weight="400" letter-spacing="0">0</text><circle cx="302.500" cy="580.000" r="8.000" fill="#C44536" stroke="#FFFFFF" stroke-width="3" /><text x="302.500" y="608.000" font-family="Arial, sans-serif" font-size="13" text-anchor="middle" fill="#425466" font-weight="400" letter-spacing="0">0.0005</text><circle cx="470.000" cy="580.000" r="8.000" fill="#C44536" stroke="#FFFFFF" stroke-width="3" /><text x="470.000" y="608.000" font-family="Arial, sans-serif" font-size="13" text-anchor="middle" fill="#425466" font-weight="400" letter-spacing="0">0.001</text><circle cx="637.500" cy="580.000" r="8.000" fill="#C44536" stroke="#FFFFFF" stroke-width="3" /><text x="637.500" y="608.000" font-family="Arial, sans-serif" font-size="13" text-anchor="middle" fill="#425466" font-weight="400" letter-spacing="0">0.002</text><circle cx="805.000" cy="574.834" r="8.000" fill="#C44536" stroke="#FFFFFF" stroke-width="3" /><text x="805.000" y="608.000" font-family="Arial, sans-serif" font-size="13" text-anchor="middle" fill="#425466" font-weight="400" letter-spacing="0">0.005</text><circle cx="972.500" cy="497.336" r="8.000" fill="#C44536" stroke="#FFFFFF" stroke-width="3" /><text x="972.500" y="608.000" font-family="Arial, sans-serif" font-size="13" text-anchor="middle" fill="#425466" font-weight="400" letter-spacing="0">0.01</text><circle cx="1140.000" cy="119.479" r="8.000" fill="#C44536" stroke="#FFFFFF" stroke-width="3" /><text x="1140.000" y="608.000" font-family="Arial, sans-serif" font-size="13" text-anchor="middle" fill="#425466" font-weight="400" letter-spacing="0">0.02</text><polyline points="135.000,580.000 302.500,580.000 470.000,580.000 637.500,580.000 805.000,574.834 972.500,497.336 1140.000,119.479" fill="none" stroke="#C44536" stroke-width="4.000" stroke-linejoin="round" /><line x1="860.000" y1="176.000" x2="900.000" y2="176.000" stroke="#C44536" stroke-width="4.000" /><text x="912.000" y="181.000" font-family="Arial, sans-serif" font-size="14" text-anchor="start" fill="#263746" font-weight="600" letter-spacing="0">shaft +/-0.025 mm</text></svg>
